<svg id="visual" viewBox="0 0 1440 1080" width="1440" height="1080" xmlns="http://www.w3.org/2000/svg" xmlns:xlink="http://www.w3.org/1999/xlink" version="1.1"><rect x="0" y="0" width="1440" height="1080" fill="#001220"></rect><defs><linearGradient id="grad1_0" x1="25%" y1="0%" x2="100%" y2="100%"><stop offset="23.333333333333336%" stop-color="#fbae3c" stop-opacity="1"></stop><stop offset="76.66666666666666%" stop-color="#fbae3c" stop-opacity="1"></stop></linearGradient></defs><defs><linearGradient id="grad1_1" x1="25%" y1="0%" x2="100%" y2="100%"><stop offset="23.333333333333336%" stop-color="#fbae3c" stop-opacity="1"></stop><stop offset="76.66666666666666%" stop-color="#f17c53" stop-opacity="1"></stop></linearGradient></defs><defs><linearGradient id="grad1_2" x1="25%" y1="0%" x2="100%" y2="100%"><stop offset="23.333333333333336%" stop-color="#cc5867" stop-opacity="1"></stop><stop offset="76.66666666666666%" stop-color="#f17c53" stop-opacity="1"></stop></linearGradient></defs><defs><linearGradient id="grad1_3" x1="25%" y1="0%" x2="100%" y2="100%"><stop offset="23.333333333333336%" stop-color="#cc5867" stop-opacity="1"></stop><stop offset="76.66666666666666%" stop-color="#96446e" stop-opacity="1"></stop></linearGradient></defs><defs><linearGradient id="grad1_4" x1="25%" y1="0%" x2="100%" y2="100%"><stop offset="23.333333333333336%" stop-color="#593762" stop-opacity="1"></stop><stop offset="76.66666666666666%" stop-color="#96446e" stop-opacity="1"></stop></linearGradient></defs><defs><linearGradient id="grad1_5" x1="25%" y1="0%" x2="100%" y2="100%"><stop offset="23.333333333333336%" stop-color="#593762" stop-opacity="1"></stop><stop offset="76.66666666666666%" stop-color="#232745" stop-opacity="1"></stop></linearGradient></defs><defs><linearGradient id="grad1_6" x1="25%" y1="0%" x2="100%" y2="100%"><stop offset="23.333333333333336%" stop-color="#001220" stop-opacity="1"></stop><stop offset="76.66666666666666%" stop-color="#232745" stop-opacity="1"></stop></linearGradient></defs><defs><linearGradient id="grad2_0" x1="0%" y1="0%" x2="75%" y2="100%"><stop offset="23.333333333333336%" stop-color="#fbae3c" stop-opacity="1"></stop><stop offset="76.66666666666666%" stop-color="#fbae3c" stop-opacity="1"></stop></linearGradient></defs><defs><linearGradient id="grad2_1" x1="0%" y1="0%" x2="75%" y2="100%"><stop offset="23.333333333333336%" stop-color="#f17c53" stop-opacity="1"></stop><stop offset="76.66666666666666%" stop-color="#fbae3c" stop-opacity="1"></stop></linearGradient></defs><defs><linearGradient id="grad2_2" x1="0%" y1="0%" x2="75%" y2="100%"><stop offset="23.333333333333336%" stop-color="#f17c53" stop-opacity="1"></stop><stop offset="76.66666666666666%" stop-color="#cc5867" stop-opacity="1"></stop></linearGradient></defs><defs><linearGradient id="grad2_3" x1="0%" y1="0%" x2="75%" y2="100%"><stop offset="23.333333333333336%" stop-color="#96446e" stop-opacity="1"></stop><stop offset="76.66666666666666%" stop-color="#cc5867" stop-opacity="1"></stop></linearGradient></defs><defs><linearGradient id="grad2_4" x1="0%" y1="0%" x2="75%" y2="100%"><stop offset="23.333333333333336%" stop-color="#96446e" stop-opacity="1"></stop><stop offset="76.66666666666666%" stop-color="#593762" stop-opacity="1"></stop></linearGradient></defs><defs><linearGradient id="grad2_5" x1="0%" y1="0%" x2="75%" y2="100%"><stop offset="23.333333333333336%" stop-color="#232745" stop-opacity="1"></stop><stop offset="76.66666666666666%" stop-color="#593762" stop-opacity="1"></stop></linearGradient></defs><defs><linearGradient id="grad2_6" x1="0%" y1="0%" x2="75%" y2="100%"><stop offset="23.333333333333336%" stop-color="#232745" stop-opacity="1"></stop><stop offset="76.66666666666666%" stop-color="#001220" stop-opacity="1"></stop></linearGradient></defs><g transform="translate(1440, 0)"><path d="M0 651C-49.5 657.2 -99 663.5 -150.2 658.1C-201.4 652.7 -254.2 635.6 -284.6 591C-315 546.5 -323 474.4 -343.5 430.8C-364 387.1 -397 371.9 -441.7 352.3C-486.4 332.7 -542.9 308.7 -556.8 268.1C-570.7 227.5 -542.2 170.3 -538.2 122.8C-534.1 75.4 -554.6 37.7 -575 0L0 0Z" fill="#0f1d33"></path><path d="M0 558C-42.4 563.4 -84.9 568.7 -128.7 564.1C-172.6 559.4 -217.9 544.8 -244 506.6C-270 468.4 -276.9 406.7 -294.5 369.2C-312 331.8 -340.3 318.7 -378.6 301.9C-416.9 285.1 -465.3 264.6 -477.3 229.8C-489.2 195 -464.7 146 -461.3 105.3C-457.8 64.6 -475.3 32.3 -492.9 0L0 0Z" fill="#3d3056"></path><path d="M0 465C-35.4 469.5 -70.7 473.9 -107.3 470.1C-143.8 466.2 -181.6 454 -203.3 422.2C-225 390.3 -230.7 338.9 -245.4 307.7C-260 276.5 -283.6 265.6 -315.5 251.6C-347.5 237.6 -387.8 220.5 -397.7 191.5C-407.7 162.5 -387.3 121.6 -384.4 87.7C-381.5 53.8 -396.1 26.9 -410.7 0L0 0Z" fill="#773d6b"></path><path d="M0 372C-28.3 375.6 -56.6 379.1 -85.8 376C-115.1 373 -145.3 363.2 -162.6 337.7C-180 312.3 -184.6 271.1 -196.3 246.2C-208 221.2 -226.9 212.5 -252.4 201.3C-278 190.1 -310.2 176.4 -318.2 153.2C-326.1 130 -309.8 97.3 -307.5 70.2C-305.2 43.1 -316.9 21.5 -328.6 0L0 0Z" fill="#b34c6d"></path><path d="M0 279C-21.2 281.7 -42.4 284.4 -64.4 282C-86.3 279.7 -108.9 272.4 -122 253.3C-135 234.2 -138.4 203.3 -147.2 184.6C-156 165.9 -170.2 159.4 -189.3 151C-208.5 142.6 -232.7 132.3 -238.6 114.9C-244.6 97.5 -232.4 73 -230.6 52.6C-228.9 32.3 -237.7 16.1 -246.4 0L0 0Z" fill="#e1685e"></path><path d="M0 186C-14.1 187.8 -28.3 189.6 -42.9 188C-57.5 186.5 -72.6 181.6 -81.3 168.9C-90 156.1 -92.3 135.6 -98.2 123.1C-104 110.6 -113.4 106.2 -126.2 100.6C-139 95 -155.1 88.2 -159.1 76.6C-163.1 65 -154.9 48.7 -153.8 35.1C-152.6 21.5 -158.4 10.8 -164.3 0L0 0Z" fill="#f99447"></path><path d="M0 93C-7.1 93.9 -14.1 94.8 -21.5 94C-28.8 93.2 -36.3 90.8 -40.7 84.4C-45 78.1 -46.1 67.8 -49.1 61.5C-52 55.3 -56.7 53.1 -63.1 50.3C-69.5 47.5 -77.6 44.1 -79.5 38.3C-81.5 32.5 -77.5 24.3 -76.9 17.5C-76.3 10.8 -79.2 5.4 -82.1 0L0 0Z" fill="#fbae3c"></path></g><g transform="translate(0, 1080)"><path d="M0 -572C54.8 -620.6 109.6 -669.2 150.2 -658.1C190.8 -646.9 217.3 -576 265.5 -551.4C313.8 -526.8 383.8 -548.4 410.9 -515.2C437.9 -482.1 422 -394.2 428.4 -341.7C434.9 -289.1 463.7 -271.9 512.7 -246.9C561.6 -221.8 630.6 -188.9 641.5 -146.4C652.4 -104 605.2 -52 558 0L0 0Z" fill="#0f1d33"></path><path d="M0 -490.3C47 -532 93.9 -573.6 128.7 -564.1C163.6 -554.5 186.2 -493.7 227.6 -472.6C269 -451.5 329 -470 352.2 -441.6C375.4 -413.2 361.7 -337.9 367.2 -292.9C372.8 -247.8 397.5 -233.1 439.4 -211.6C481.4 -190.1 540.5 -161.9 549.9 -125.5C559.2 -89.1 518.7 -44.6 478.3 0L0 0Z" fill="#3d3056"></path><path d="M0 -408.6C39.1 -443.3 78.3 -478 107.3 -470.1C136.3 -462.1 155.2 -411.5 189.7 -393.9C224.1 -376.3 274.2 -391.7 293.5 -368C312.8 -344.4 301.4 -281.6 306 -244.1C310.6 -206.5 331.2 -194.2 366.2 -176.3C401.1 -158.4 450.4 -134.9 458.2 -104.6C466 -74.3 432.3 -37.1 398.6 0L0 0Z" fill="#773d6b"></path><path d="M0 -326.9C31.3 -354.6 62.6 -382.4 85.8 -376C109 -369.7 124.2 -329.2 151.7 -315.1C179.3 -301 219.3 -313.3 234.8 -294.4C250.2 -275.5 241.1 -225.3 244.8 -195.2C248.5 -165.2 265 -155.4 292.9 -141.1C320.9 -126.8 360.3 -107.9 366.6 -83.7C372.8 -59.4 345.8 -29.7 318.9 0L0 0Z" fill="#b34c6d"></path><path d="M0 -245.1C23.5 -266 47 -286.8 64.4 -282C81.8 -277.3 93.1 -246.9 113.8 -236.3C134.5 -225.8 164.5 -235 176.1 -220.8C187.7 -206.6 180.9 -168.9 183.6 -146.4C186.4 -123.9 198.7 -116.5 219.7 -105.8C240.7 -95.1 270.3 -80.9 274.9 -62.8C279.6 -44.6 259.4 -22.3 239.1 0L0 0Z" fill="#e1685e"></path><path d="M0 -163.4C15.7 -177.3 31.3 -191.2 42.9 -188C54.5 -184.8 62.1 -164.6 75.9 -157.5C89.7 -150.5 109.7 -156.7 117.4 -147.2C125.1 -137.7 120.6 -112.6 122.4 -97.6C124.3 -82.6 132.5 -77.7 146.5 -70.5C160.5 -63.4 180.2 -54 183.3 -41.8C186.4 -29.7 172.9 -14.9 159.4 0L0 0Z" fill="#f99447"></path><path d="M0 -81.7C7.8 -88.7 15.7 -95.6 21.5 -94C27.3 -92.4 31 -82.3 37.9 -78.8C44.8 -75.3 54.8 -78.3 58.7 -73.6C62.6 -68.9 60.3 -56.3 61.2 -48.8C62.1 -41.3 66.2 -38.8 73.2 -35.3C80.2 -31.7 90.1 -27 91.6 -20.9C93.2 -14.9 86.5 -7.4 79.7 0L0 0Z" fill="#fbae3c"></path></g></svg>