<svg id="visual" viewBox="0 0 1080 1440" width="1080" height="1440" xmlns="http://www.w3.org/2000/svg" xmlns:xlink="http://www.w3.org/1999/xlink" version="1.1"><rect x="0" y="0" width="1080" height="1440" fill="#001220"></rect><defs><linearGradient id="grad1_0" x1="0%" y1="0%" x2="100%" y2="100%"><stop offset="30%" stop-color="#fbae3c" stop-opacity="1"></stop><stop offset="70%" stop-color="#fbae3c" stop-opacity="1"></stop></linearGradient></defs><defs><linearGradient id="grad1_1" x1="0%" y1="0%" x2="100%" y2="100%"><stop offset="30%" stop-color="#fbae3c" stop-opacity="1"></stop><stop offset="70%" stop-color="#f17c53" stop-opacity="1"></stop></linearGradient></defs><defs><linearGradient id="grad1_2" x1="0%" y1="0%" x2="100%" y2="100%"><stop offset="30%" stop-color="#cc5867" stop-opacity="1"></stop><stop offset="70%" stop-color="#f17c53" stop-opacity="1"></stop></linearGradient></defs><defs><linearGradient id="grad1_3" x1="0%" y1="0%" x2="100%" y2="100%"><stop offset="30%" stop-color="#cc5867" stop-opacity="1"></stop><stop offset="70%" stop-color="#96446e" stop-opacity="1"></stop></linearGradient></defs><defs><linearGradient id="grad1_4" x1="0%" y1="0%" x2="100%" y2="100%"><stop offset="30%" stop-color="#593762" stop-opacity="1"></stop><stop offset="70%" stop-color="#96446e" stop-opacity="1"></stop></linearGradient></defs><defs><linearGradient id="grad1_5" x1="0%" y1="0%" x2="100%" y2="100%"><stop offset="30%" stop-color="#593762" stop-opacity="1"></stop><stop offset="70%" stop-color="#232745" stop-opacity="1"></stop></linearGradient></defs><defs><linearGradient id="grad1_6" x1="0%" y1="0%" x2="100%" y2="100%"><stop offset="30%" stop-color="#001220" stop-opacity="1"></stop><stop offset="70%" stop-color="#232745" stop-opacity="1"></stop></linearGradient></defs><defs><linearGradient id="grad2_0" x1="0%" y1="0%" x2="100%" y2="100%"><stop offset="30%" stop-color="#fbae3c" stop-opacity="1"></stop><stop offset="70%" stop-color="#fbae3c" stop-opacity="1"></stop></linearGradient></defs><defs><linearGradient id="grad2_1" x1="0%" y1="0%" x2="100%" y2="100%"><stop offset="30%" stop-color="#f17c53" stop-opacity="1"></stop><stop offset="70%" stop-color="#fbae3c" stop-opacity="1"></stop></linearGradient></defs><defs><linearGradient id="grad2_2" x1="0%" y1="0%" x2="100%" y2="100%"><stop offset="30%" stop-color="#f17c53" stop-opacity="1"></stop><stop offset="70%" stop-color="#cc5867" stop-opacity="1"></stop></linearGradient></defs><defs><linearGradient id="grad2_3" x1="0%" y1="0%" x2="100%" y2="100%"><stop offset="30%" stop-color="#96446e" stop-opacity="1"></stop><stop offset="70%" stop-color="#cc5867" stop-opacity="1"></stop></linearGradient></defs><defs><linearGradient id="grad2_4" x1="0%" y1="0%" x2="100%" y2="100%"><stop offset="30%" stop-color="#96446e" stop-opacity="1"></stop><stop offset="70%" stop-color="#593762" stop-opacity="1"></stop></linearGradient></defs><defs><linearGradient id="grad2_5" x1="0%" y1="0%" x2="100%" y2="100%"><stop offset="30%" stop-color="#232745" stop-opacity="1"></stop><stop offset="70%" stop-color="#593762" stop-opacity="1"></stop></linearGradient></defs><defs><linearGradient id="grad2_6" x1="0%" y1="0%" x2="100%" y2="100%"><stop offset="30%" stop-color="#232745" stop-opacity="1"></stop><stop offset="70%" stop-color="#001220" stop-opacity="1"></stop></linearGradient></defs><g transform="translate(1080, 0)"><path d="M0 633C-52.8 641.4 -105.7 649.8 -141.5 620.1C-177.4 590.3 -196.3 522.3 -245.1 509C-294 495.8 -372.8 537.4 -420.9 527.7C-468.9 518.1 -486.1 457.3 -513.7 409.6C-541.2 362 -579 327.5 -582.9 280.7C-586.9 234 -556.9 175 -552.8 126.2C-548.7 77.3 -570.3 38.7 -592 0L0 0Z" fill="#0f1d33"></path><path d="M0 542.6C-45.3 549.8 -90.6 557 -121.3 531.5C-152 505.9 -168.2 447.7 -210.1 436.3C-252 425 -319.6 460.6 -360.7 452.3C-401.9 444.1 -416.7 392 -440.3 351.1C-463.9 310.3 -496.3 280.7 -499.7 240.6C-503 200.6 -477.4 150 -473.8 108.1C-470.3 66.3 -488.9 33.1 -507.4 0L0 0Z" fill="#3d3056"></path><path d="M0 452.1C-37.7 458.2 -75.5 464.2 -101.1 442.9C-126.7 421.6 -140.2 373.1 -175.1 363.6C-210 354.2 -266.3 383.8 -300.6 377C-334.9 370.1 -347.2 326.6 -366.9 292.6C-386.6 258.6 -413.6 233.9 -416.4 200.5C-419.2 167.1 -397.8 125 -394.8 90.1C-391.9 55.2 -407.4 27.6 -422.9 0L0 0Z" fill="#773d6b"></path><path d="M0 361.7C-30.2 366.5 -60.4 371.3 -80.9 354.3C-101.4 337.3 -112.2 298.4 -140.1 290.9C-168 283.3 -213 307.1 -240.5 301.6C-267.9 296.1 -277.8 261.3 -293.5 234.1C-309.3 206.8 -330.9 187.1 -333.1 160.4C-335.3 133.7 -318.2 100 -315.9 72.1C-313.5 44.2 -325.9 22.1 -338.3 0L0 0Z" fill="#b34c6d"></path><path d="M0 271.3C-22.6 274.9 -45.3 278.5 -60.7 265.7C-76 253 -84.1 223.8 -105.1 218.2C-126 212.5 -159.8 230.3 -180.4 226.2C-201 222 -208.3 196 -220.1 175.6C-231.9 155.1 -248.1 140.3 -249.8 120.3C-251.5 100.3 -238.7 75 -236.9 54.1C-235.1 33.1 -244.4 16.6 -253.7 0L0 0Z" fill="#e1685e"></path><path d="M0 180.9C-15.1 183.3 -30.2 185.7 -40.4 177.2C-50.7 168.6 -56.1 149.2 -70 145.4C-84 141.7 -106.5 153.5 -120.2 150.8C-134 148 -138.9 130.7 -146.8 117C-154.6 103.4 -165.4 93.6 -166.6 80.2C-167.7 66.9 -159.1 50 -157.9 36C-156.8 22.1 -163 11 -169.1 0L0 0Z" fill="#f99447"></path><path d="M0 90.4C-7.5 91.6 -15.1 92.8 -20.2 88.6C-25.3 84.3 -28 74.6 -35 72.7C-42 70.8 -53.3 76.8 -60.1 75.4C-67 74 -69.4 65.3 -73.4 58.5C-77.3 51.7 -82.7 46.8 -83.3 40.1C-83.8 33.4 -79.6 25 -79 18C-78.4 11 -81.5 5.5 -84.6 0L0 0Z" fill="#fbae3c"></path></g><g transform="translate(0, 1440)"><path d="M0 -584C49.7 -596.3 99.4 -608.6 133.5 -585C167.6 -561.4 186 -501.9 239.5 -497.3C293 -492.8 381.6 -543.2 420.9 -527.7C460.1 -512.2 450.1 -430.8 482.4 -384.7C514.6 -338.6 589.1 -327.7 595.5 -286.8C602 -245.9 540.3 -175 535.2 -122.2C530.1 -69.4 581.6 -34.7 633 0L0 0Z" fill="#0f1d33"></path><path d="M0 -500.6C42.6 -511.1 85.2 -521.6 114.4 -501.4C143.6 -481.2 159.4 -430.2 205.3 -426.3C251.1 -422.4 327.1 -465.6 360.7 -452.3C394.4 -439.1 385.8 -369.3 413.5 -329.7C441.1 -290.2 505 -280.9 510.5 -245.8C516 -210.8 463.1 -150 458.8 -104.7C454.4 -59.5 498.5 -29.7 542.6 0L0 0Z" fill="#3d3056"></path><path d="M0 -417.1C35.5 -425.9 71 -434.7 95.4 -417.8C119.7 -401 132.9 -358.5 171.1 -355.2C209.3 -352 272.5 -388 300.6 -377C328.7 -365.9 321.5 -307.7 344.6 -274.8C367.6 -241.8 420.8 -234.1 425.4 -204.9C430 -175.6 386 -125 382.3 -87.3C378.7 -49.5 415.4 -24.8 452.1 0L0 0Z" fill="#773d6b"></path><path d="M0 -333.7C28.4 -340.7 56.8 -347.7 76.3 -334.3C95.8 -320.8 106.3 -286.8 136.9 -284.2C167.4 -281.6 218 -310.4 240.5 -301.6C262.9 -292.7 257.2 -246.2 275.7 -219.8C294.1 -193.5 336.6 -187.3 340.3 -163.9C344 -140.5 308.8 -100 305.8 -69.8C302.9 -39.6 332.3 -19.8 361.7 0L0 0Z" fill="#b34c6d"></path><path d="M0 -250.3C21.3 -255.5 42.6 -260.8 57.2 -250.7C71.8 -240.6 79.7 -215.1 102.6 -213.1C125.6 -211.2 163.5 -232.8 180.4 -226.2C197.2 -219.5 192.9 -184.6 206.7 -164.9C220.6 -145.1 252.5 -140.4 255.2 -122.9C258 -105.4 231.6 -75 229.4 -52.4C227.2 -29.7 249.2 -14.9 271.3 0L0 0Z" fill="#e1685e"></path><path d="M0 -166.9C14.2 -170.4 28.4 -173.9 38.1 -167.1C47.9 -160.4 53.1 -143.4 68.4 -142.1C83.7 -140.8 109 -155.2 120.2 -150.8C131.5 -146.4 128.6 -123.1 137.8 -109.9C147 -96.7 168.3 -93.6 170.2 -81.9C172 -70.3 154.4 -50 152.9 -34.9C151.5 -19.8 166.2 -9.9 180.9 0L0 0Z" fill="#f99447"></path><path d="M0 -83.4C7.1 -85.2 14.2 -86.9 19.1 -83.6C23.9 -80.2 26.6 -71.7 34.2 -71C41.9 -70.4 54.5 -77.6 60.1 -75.4C65.7 -73.2 64.3 -61.5 68.9 -55C73.5 -48.4 84.2 -46.8 85.1 -41C86 -35.1 77.2 -25 76.5 -17.5C75.7 -9.9 83.1 -5 90.4 0L0 0Z" fill="#fbae3c"></path></g></svg>